<?xml version="1.0" encoding="UTF-8" standalone="no"?>
<!-- Created with Inkscape (http://www.inkscape.org/) -->

<svg
   xmlns:dc="http://purl.org/dc/elements/1.1/"
   xmlns:cc="http://creativecommons.org/ns#"
   xmlns:rdf="http://www.w3.org/1999/02/22-rdf-syntax-ns#"
   xmlns:svg="http://www.w3.org/2000/svg"
   xmlns="http://www.w3.org/2000/svg"
   xmlns:sodipodi="http://sodipodi.sourceforge.net/DTD/sodipodi-0.dtd"
   xmlns:inkscape="http://www.inkscape.org/namespaces/inkscape"
   width="15.111673mm"
   height="14.49097mm"
   viewBox="0 0 15.111673 14.49097"
   version="1.1"
   id="svg1172"
   inkscape:version="0.92.3 (2405546, 2018-03-11)"
   sodipodi:docname="axway.svg">
  <defs
     id="defs1166" />
  <sodipodi:namedview
     id="base"
     pagecolor="#ffffff"
     bordercolor="#666666"
     borderopacity="1.0"
     inkscape:pageopacity="0.0"
     inkscape:pageshadow="2"
     inkscape:zoom="0.35"
     inkscape:cx="-546.87619"
     inkscape:cy="66.315805"
     inkscape:document-units="mm"
     inkscape:current-layer="layer1"
     showgrid="false"
     fit-margin-top="0"
     fit-margin-left="0"
     fit-margin-right="0"
     fit-margin-bottom="0"
     inkscape:window-width="1920"
     inkscape:window-height="1027"
     inkscape:window-x="-8"
     inkscape:window-y="22"
     inkscape:window-maximized="1" />
  <metadata
     id="metadata1169">
    <rdf:RDF>
      <cc:Work
         rdf:about="">
        <dc:format>image/svg+xml</dc:format>
        <dc:type
           rdf:resource="http://purl.org/dc/dcmitype/StillImage" />
        <dc:title></dc:title>
      </cc:Work>
    </rdf:RDF>
  </metadata>
  <g
     inkscape:label="Layer 1"
     inkscape:groupmode="layer"
     id="layer1"
     transform="translate(-57.759807,-151.88842)">
    <path
       style="fill:#d9272d;fill-opacity:1;stroke-width:1"
       d="m 60.151104,165.7828 c 0.27817,-0.32808 1.046954,-1.13213 1.708406,-1.78678 0.661453,-0.65464 1.202643,-1.2243 1.202643,-1.2659 0,-0.0416 -0.477211,-0.30831 -1.060466,-0.59268 l -1.060471,-0.51704 v -0.97869 c 0,-0.5383 0.05275,-0.95882 0.117211,-0.93451 0.762997,0.28763 4.784693,2.30598 4.757483,2.38761 -0.02004,0.0602 -0.916551,1.02949 -1.992218,2.15407 l -1.955765,2.04471 -1.111293,0.0429 -1.111294,0.0429 z m 4.104077,-5.7 -4.705834,-2.24507 -0.03863,-0.99338 -0.03863,-0.99336 0.966532,0.44227 c 0.531596,0.24325 2.994688,1.41233 5.473531,2.59795 2.478848,1.18561 4.732658,2.25815 5.008464,2.3834 l 0.501465,0.22774 -1.144601,0.41697 c -0.629528,0.22932 -1.183268,0.41507 -1.230538,0.41276 -0.04725,-0.003 -2.203564,-1.0145 -4.791773,-2.24928 z m 4.506999,-0.98997 c -5.713715,-2.73037 -10.781963,-5.10775 -10.889053,-5.10775 -0.0623,0 -0.11332,-0.47175 -0.11332,-1.04833 v -1.04833 l 3.413386,1.62498 c 6.654424,3.1679 8.525013,4.05077 8.582684,4.05077 0.03211,0 0.07516,-0.6849 0.0957,-1.52198 l 0.03733,-1.52195 1.491289,0.71946 1.491284,0.71948 v 1.00356 1.00357 l -0.66279,-0.33586 -0.662795,-0.33586 v 1.52665 c 0,0.83966 -0.04474,1.5222 -0.09942,1.51673 -0.05467,-0.005 -1.262623,-0.56576 -2.684312,-1.24514 z"
       id="path5229"
       inkscape:connector-curvature="0" />
  </g>
</svg>

